<?xml version="1.0" encoding="UTF-8"?>
<svg width="12px" height="12px" viewBox="0 0 12 12" version="1.1" xmlns="http://www.w3.org/2000/svg" xmlns:xlink="http://www.w3.org/1999/xlink">
    <!-- Generator: Sketch 64 (93537) - https://sketch.com -->
    <title>04icon_gd</title>
    <desc>Created with Sketch.</desc>
    <g id="页面-1" stroke="none" stroke-width="1" fill="none" fill-rule="evenodd">
        <g id="04签收照片" transform="translate(-328.000000, -165.000000)" fill="#666666" fill-rule="nonzero">
            <g id="模板" transform="translate(15.000000, 145.000000)">
                <g id="编组-3" transform="translate(280.000000, 16.000000)">
                    <g id="04icon_gd" transform="translate(33.000000, 4.000000)">
                        <path d="M0.912193216,11.555279 L0.912193205,11.555279 C0.527645362,11.555279 0.215949687,11.2434988 0.215949687,10.858951 C0.215949687,10.6743096 0.289310223,10.4972339 0.419866243,10.366666 L5.00874311,5.77778916 L0.419866243,1.18891229 L0.41986625,1.18891229 C0.150488158,0.914481072 0.154584517,0.473636462 0.429016981,0.204258371 C0.699848372,-0.0615867301 1.13368811,-0.0615867301 1.4045195,0.204258358 L6.11714652,4.91612148 L6.1171465,4.91612146 C6.59230504,5.39200951 6.59230504,6.16280486 6.11714654,6.63869291 L1.40451952,11.3513199 L1.40451951,11.3513199 C1.27408056,11.4820977 1.0969011,11.5554981 0.912192549,11.555279 L0.912193216,11.555279 Z" id="路径"></path>
                        <path d="M5.77778916,11.5552791 L5.77778914,11.5552791 C5.3932413,11.5552791 5.08154563,11.2434988 5.08154563,10.858951 C5.08154563,10.6743096 5.15490616,10.4972339 5.28546218,10.366666 L9.87357516,5.77778916 L5.28469829,1.18891229 L5.2846983,1.18891229 C5.01532021,0.914481072 5.01941657,0.473636462 5.29384903,0.204258371 C5.56468042,-0.0615867301 5.99852016,-0.0615867301 6.26935155,0.204258358 L10.9819786,4.91612148 L10.9819786,4.91612154 C11.4576528,5.38998911 11.4591176,6.15974556 10.9852504,6.63542163 C10.9841618,6.63651434 10.9830712,6.63760496 10.9819785,6.63869353 L6.26954246,11.3513205 L6.26954248,11.3513205 C6.1392437,11.4819575 5.96229837,11.5552791 5.77778843,11.5552791 L5.77778916,11.5552791 Z" id="路径"></path>
                    </g>
                </g>
            </g>
        </g>
    </g>
</svg>