<?xml version="1.0" encoding="UTF-8"?>
<svg width="20px" height="20px" viewBox="0 0 20 20" version="1.1" xmlns="http://www.w3.org/2000/svg" xmlns:xlink="http://www.w3.org/1999/xlink">
    <!-- Generator: Sketch 64 (93537) - https://sketch.com -->
    <title>icon_cyyw</title>
    <desc>Created with Sketch.</desc>
    <defs>
        <linearGradient x1="50%" y1="0%" x2="50%" y2="100%" id="linearGradient-1">
            <stop stop-color="#67ECCE" offset="0%"></stop>
            <stop stop-color="#37D5A0" offset="100%"></stop>
        </linearGradient>
    </defs>
    <g id="页面-1" stroke="none" stroke-width="1" fill="none" fill-rule="evenodd">
        <g id="01淘材模块首页备份" transform="translate(-15.000000, -507.000000)" fill="url(#linearGradient-1)" fill-rule="nonzero">
            <g id="icon_cyyw" transform="translate(15.000000, 507.000000)">
                <path d="M4.84628442,0.383034594 C2.38100323,0.383034594 0.38252434,2.38151348 0.38252434,4.84682153 C0.38252434,7.3130158 2.38100323,9.31144098 4.84628442,9.31144098 L9.31337458,9.31144098 L9.31337458,4.84682153 C9.31254206,2.38151348 7.31328436,0.383034594 4.84711694,0.383034594 L4.84628442,0.383034594 Z M19.618367,4.84682153 C19.618367,2.38068096 17.6194047,0.381396409 15.1528882,0.381396409 C12.6865328,0.381396409 10.6875168,2.38068096 10.6875168,4.84682153 L10.6875168,9.31144098 L15.154043,9.31144098 C17.6194047,9.31144098 19.618367,7.3130158 19.618367,4.84682153 Z M0.38169182,15.1520825 C0.38169182,17.6185185 2.38100323,19.6174539 4.84711694,19.6174539 C7.31328436,19.6174539 9.31170954,17.6184917 9.31170954,15.1520825 L9.31170954,10.6883762 L4.84628442,10.6883762 C2.38100323,10.6883762 0.38169182,12.6867476 0.38169182,15.1520825 Z M15.1518677,10.6883758 L10.6852878,10.6883758 L10.6852878,15.1521094 C10.6852878,17.6191093 12.6842501,19.6186356 15.1507398,19.6186356 C17.617122,19.6186356 19.6161131,17.6191093 19.6161131,15.1521094 C19.6172122,13.9680504 19.1464622,12.8326804 18.3099939,11.9950574 L18.3099938,11.9950573 C17.4721747,11.1579955 16.3361871,10.6879786 15.1518676,10.6883758 L15.1518677,10.6883758 Z" id="形状"></path>
            </g>
        </g>
    </g>
</svg>