<?xml version="1.0" encoding="UTF-8"?>
<svg width="18px" height="20px" viewBox="0 0 18 20" version="1.1" xmlns="http://www.w3.org/2000/svg" xmlns:xlink="http://www.w3.org/1999/xlink">
    <!-- Generator: Sketch 64 (93537) - https://sketch.com -->
    <title>yzm_icon</title>
    <desc>Created with Sketch.</desc>
    <defs>
        <linearGradient x1="87.541039%" y1="100%" x2="12.458961%" y2="0%" id="linearGradient-1">
            <stop stop-color="#0D80F7" offset="0%"></stop>
            <stop stop-color="#02A0FE" offset="100%"></stop>
        </linearGradient>
    </defs>
    <g id="页面-1" stroke="none" stroke-width="1" fill="none" fill-rule="evenodd">
        <g id="00-1手机验证码登录" transform="translate(-58.000000, -330.000000)" fill="url(#linearGradient-1)" fill-rule="nonzero">
            <g id="yzm_icon" transform="translate(58.000000, 330.000000)">
                <path d="M9.08941682,20.0000233 C6.06040939,20.0000233 0.424406726,15.5170298 0.424406726,11.279017 L0.424406726,3.18701543 L0.424406726,3.18701584 C0.429313841,2.98612694 0.594464541,2.82631816 0.795407158,2.82801543 L1.28640773,2.82001544 L1.28640806,2.82001542 C2.63036665,2.75730168 3.95570804,2.48048573 5.21240872,2.00001447 L5.21240739,2.00001497 C6.39153377,1.54760234 7.51838664,0.969254009 8.5734074,0.275016873 L8.86440774,0.0750166407 L8.86440773,0.0750166439 C8.92955722,0.0275179558 9.00779735,0.00132085497 9.08841385,-4.39161154e-06 L9.08841387,-4.39161154e-06 C9.16811611,-0.000751280407 9.24607128,0.023369318 9.31141413,0.0690133164 L9.60641447,0.274013555 L9.606416,0.274014559 C10.661593,0.968243883 11.7884107,1.54690862 12.967416,2.00001461 L12.9674165,2.00001479 C14.2251699,2.48030832 15.551521,2.7567852 16.8964249,2.81901574 L17.3834255,2.82701573 L17.3834255,2.82701573 C17.5843671,2.82531762 17.7495177,2.98512666 17.7544271,3.18601615 L17.7544271,11.2780178 C17.7574237,15.5170266 12.1244194,20.0000233 9.08941584,20.0000233 L9.08941682,20.0000233 Z M16.4244254,4.12902824 L16.4244254,4.12902822 C15.0752263,4.02467302 13.7481915,3.72592033 12.4844205,3.24202914 L12.4844205,3.24202913 C11.3008781,2.78145047 10.1640467,2.2088502 9.08941653,1.53202874 L9.0894171,1.53202874 C8.01651937,2.20845726 6.88175828,2.78136613 5.70042878,3.24302682 L5.70042779,3.2430272 C4.43561967,3.72687737 3.10759274,4.02562577 1.75743492,4.13002628 L1.75743492,11.279019 C1.75743492,14.6030267 6.66644453,18.6670159 9.08943564,18.6670159 C10.0284367,18.6670159 11.8574271,17.911015 13.6564331,16.2500209 C15.3894332,14.6500209 16.4244254,12.7910129 16.4244254,11.279019 L16.4244254,4.13002628 L16.4244254,4.12902824 Z M8.39543164,12.6370264 L8.39543167,12.6370264 C8.13643918,12.897429 7.71538595,12.8985716 7.45498331,12.6395779 C7.45413052,12.6387297 7.45328004,12.6378792 7.45243186,12.6370265 L5.45242953,10.6370241 L5.4524295,10.6370241 C5.17192527,10.3982406 5.13810492,9.97727724 5.37688683,9.696773 C5.61567031,9.41626877 6.0366337,9.38244842 6.31713793,9.62123034 C6.34538054,9.64527236 6.37156866,9.67162805 6.39543001,9.70002359 L7.92442984,11.2240234 L11.7854304,7.36302283 L11.7854304,7.36302282 C12.065505,7.12373739 12.4865309,7.15680383 12.7258143,7.43687935 C12.9395099,7.68700269 12.938922,8.0555832 12.7244296,8.30502294 L8.39542061,12.6370202 L8.39543164,12.6370264 Z" id="形状"></path>
            </g>
        </g>
    </g>
</svg>