<?xml version="1.0" encoding="UTF-8"?>
<svg width="24px" height="24px" viewBox="0 0 24 24" version="1.1" xmlns="http://www.w3.org/2000/svg" xmlns:xlink="http://www.w3.org/1999/xlink">
    <!-- Generator: Sketch 64 (93537) - https://sketch.com -->
    <title>zh_icon</title>
    <desc>Created with Sketch.</desc>
    <defs>
        <linearGradient x1="99.9865652%" y1="100%" x2="0.013434823%" y2="0%" id="linearGradient-1">
            <stop stop-color="#0D80F7" offset="0%"></stop>
            <stop stop-color="#02A0FE" offset="100%"></stop>
        </linearGradient>
    </defs>
    <g id="页面-1" stroke="none" stroke-width="1" fill="none" fill-rule="evenodd">
        <g id="00-3账户密码登录" transform="translate(-57.000000, -258.000000)" fill="url(#linearGradient-1)" fill-rule="nonzero">
            <g id="zh_icon" transform="translate(57.000000, 258.000000)">
                <path d="M23.7785239,23.0216346 C23.765429,22.9365178 22.5960569,15.4397039 15.3126881,13.6587822 C17.7483365,12.5051239 19.4336416,10.0917334 19.4336416,7.30121675 C19.4336416,3.39370774 16.1389659,0.214262075 12.0913295,0.214262075 C8.04109038,0.214262075 4.74508878,3.39370774 4.74508878,7.30121675 C4.74508878,10.081249 6.41730434,12.4854884 8.83724086,13.6456951 C1.54992881,15.3964797 0.23653219,22.9234202 0.223420568,23.0098489 L0.223420562,23.0098489 C0.167241189,23.3758449 0.418397999,23.7180877 0.784394206,23.7742663 C0.788146782,23.7748423 0.791904195,23.7753864 0.795666027,23.7758986 L0.795666012,23.7758986 C1.1691852,23.8393014 1.52397735,23.58972 1.59052497,23.2167469 C1.64814245,22.8631848 3.08334211,14.6160382 12.031084,14.6160382 L12.087392,14.6160382 C21.050831,14.650085 22.3563951,22.8566438 22.4061652,23.2049611 C22.4598541,23.5703089 22.8094875,23.8204217 23.1879297,23.7745875 L23.1879297,23.7745875 C23.5572061,23.7319538 23.8220043,23.3980335 23.7793695,23.0287571 C23.7790951,23.0263806 23.7788081,23.0240056 23.7785084,23.0216322 L23.7785239,23.0216346 Z M6.12924887,7.30121675 C6.12924887,4.12962824 8.80453546,1.54995336 12.091354,1.54995336 C15.3781726,1.54995336 18.0508319,4.12965279 18.0508319,7.30121675 C18.0508319,10.4728053 15.3768467,13.0524801 12.091354,13.0524801 C8.80453546,13.0524801 6.13057476,10.4727807 6.13057476,7.30121675 L6.12924887,7.30121675 Z" id="形状"></path>
            </g>
        </g>
    </g>
</svg>