<?xml version="1.0" encoding="UTF-8"?>
<svg width="17px" height="24px" viewBox="0 0 17 24" version="1.1" xmlns="http://www.w3.org/2000/svg" xmlns:xlink="http://www.w3.org/1999/xlink">
    <!-- Generator: Sketch 64 (93537) - https://sketch.com -->
    <title>sj_icon</title>
    <desc>Created with Sketch.</desc>
    <defs>
        <linearGradient x1="71.6482%" y1="100%" x2="28.3518%" y2="0%" id="linearGradient-1">
            <stop stop-color="#0D80F7" offset="0%"></stop>
            <stop stop-color="#02A0FE" offset="100%"></stop>
        </linearGradient>
    </defs>
    <g id="页面-1" stroke="none" stroke-width="1" fill="none" fill-rule="evenodd">
        <g id="00-1手机验证码登录" transform="translate(-60.000000, -258.000000)" fill="url(#linearGradient-1)" fill-rule="nonzero">
            <g id="sj_icon" transform="translate(60.000000, 258.000000)">
                <path d="M8.18183215,19.2480224 C7.50983136,19.2480224 6.95783072,19.800023 6.95783072,20.4720238 C6.95783072,21.1440246 7.50983136,21.6960252 8.18183215,21.6960252 C8.85383293,21.6960252 9.40583357,21.1440246 9.40583357,20.4720238 C9.40583357,19.800023 8.85383293,19.2480224 8.18183215,19.2480224 Z M14.2298392,-9.99201885e-16 L2.13382511,-9.99201885e-16 C1.11382392,-9.99201885e-16 0.285822957,0.828000963 0.285822957,1.84800215 L0.285822957,22.1520258 C0.285822957,23.172027 1.11382392,24.0000279 2.13382511,24.0000279 L14.2298392,24.0000279 C15.2498404,24.0000279 16.0778413,23.172027 16.0778413,22.1520258 L16.0778413,1.84800215 C16.0778413,0.828000963 15.2498404,-9.99201885e-16 14.2298392,-9.99201885e-16 Z M2.13382511,1.23600144 L14.2298392,1.23600144 C14.5658396,1.23600144 14.8418399,1.51200176 14.8418399,1.84800215 L14.8418399,17.0640199 L1.50982438,17.0640199 L1.50982438,1.84800215 C1.5218244,1.51200176 1.79782472,1.23600144 2.13382511,1.23600144 Z M14.2298392,22.7640265 L2.13382511,22.7640265 C1.79782472,22.7640265 1.5218244,22.4880262 1.5218244,22.1520258 L1.5218244,18.3960214 L14.8538399,18.3960214 L14.8538399,22.1520258 C14.8418399,22.4880262 14.5658396,22.7640265 14.2298392,22.7640265 Z" id="形状"></path>
            </g>
        </g>
    </g>
</svg>