<?xml version="1.0" encoding="UTF-8"?>
<svg width="16px" height="16px" viewBox="0 0 16 16" version="1.1" xmlns="http://www.w3.org/2000/svg" xmlns:xlink="http://www.w3.org/1999/xlink">
    <!-- Generator: Sketch 64 (93537) - https://sketch.com -->
    <title>04icon_sx</title>
    <desc>Created with Sketch.</desc>
    <g id="页面-1" stroke="none" stroke-width="1" fill="none" fill-rule="evenodd">
        <g id="04签收照片" transform="translate(-344.000000, -93.000000)" fill="#333333" fill-rule="nonzero">
            <g id="编组-2" transform="translate(309.000000, 90.000000)">
                <g id="04icon_sx" transform="translate(35.000000, 3.000000)">
                    <path d="M8.94517964,15.6046837 L8.9451796,15.6046837 C8.6945548,15.6056838 8.44759004,15.5444868 8.22645179,15.4265392 L6.26740017,14.3350774 C5.78401474,14.0768484 5.48506044,13.5718248 5.48889597,13.0248094 L5.48889597,6.80041234 L5.48889597,6.80041229 C5.48670263,6.70820052 5.44327867,6.6218307 5.37057347,6.56506991 L0.841897145,2.93195384 L0.791003993,2.87215936 L0.791004021,2.87215939 C0.375807814,2.44602649 0.263309163,1.80939171 0.50731948,1.26677266 L0.507319419,1.2667728 C0.737791398,0.721479731 1.27657311,0.371018961 1.86848054,0.381380322 L14.0870161,0.381380322 C14.6772718,0.381380322 15.2090174,0.72485934 15.4570786,1.2667728 C15.6987894,1.80613527 15.5944702,2.44091561 15.1899303,2.87215954 L15.1301539,2.93068756 L10.5429495,6.60451092 L10.5429495,6.60451093 C10.4747449,6.663763 10.4353466,6.74950738 10.4348129,6.83985331 L10.4348129,14.10737 L10.4348129,14.1073723 C10.4467772,14.9222616 9.7958768,15.5925604 8.98098753,15.6045247 C8.96990199,15.6046837 8.9588149,15.6046837 8.94772859,15.6046837 L8.94517964,15.6046837 Z M1.61786848,2.04657951 L6.1300267,5.65044061 C6.48367349,5.93412515 6.6922938,6.3577342 6.6922938,6.81059821 L6.6922938,13.0349953 C6.6922938,13.1431138 6.73935142,13.2512504 6.83858673,13.3021255 L8.79760217,14.3745182 L8.79760216,14.3745182 C8.89339219,14.4238759 9.00713431,14.4238759 9.10292489,14.3745182 L9.10292489,14.3745182 C9.19551713,14.3174697 9.25149707,14.2161211 9.25048427,14.1073699 L9.25048427,6.85003905 C9.25048427,6.39844148 9.44638581,5.9735479 9.80131715,5.68859691 L14.3223586,2.04656142 L14.3223586,2.04656141 C14.4221587,1.91152215 14.3935918,1.72114738 14.2585526,1.6213476 C14.2080601,1.5840315 14.1472534,1.5632621 14.0844831,1.56179893 L1.86592945,1.56179893 L1.86592943,1.56179893 C1.75181787,1.55896473 1.64726257,1.62532244 1.60133208,1.7298231 L1.6013321,1.72982308 C1.54697267,1.82985047 1.55386686,1.95201972 1.61913473,2.04529549 L1.61786848,2.04657951 Z M14.98131,8.22898473 L11.6229591,8.22898473 L11.6229591,8.22898473 C11.2970566,8.22828156 11.0328392,7.96462982 11.031437,7.63872911 C11.031437,7.31180439 11.2985673,7.04720704 11.6216926,7.04720704 L14.9800436,7.04720704 L14.9800436,7.04720704 C15.3081407,7.04751734 15.5738652,7.31374386 15.5735543,7.64184095 C15.5734065,7.7978215 15.5119188,7.94748572 15.4023676,8.05852072 L15.4023676,8.05852069 C15.2910236,8.17021804 15.1389987,8.23176456 14.9813095,8.22898471 L14.98131,8.22898473 Z M14.98131,10.4551666 L11.6229591,10.4551666 L11.6229591,10.4551666 C11.2966205,10.4400545 11.0443204,10.1632538 11.0594328,9.83691522 C11.0735651,9.53173361 11.3177775,9.28752247 11.6229591,9.27338762 L14.9800436,9.27338762 L14.9800436,9.27338762 C15.3074405,9.27271506 15.5733948,9.53757737 15.5740709,9.8649743 C15.5743921,10.0216726 15.5126595,10.1721243 15.4023686,10.2834361 L15.4023687,10.2834361 C15.2910247,10.3951335 15.1389998,10.45668 14.9813106,10.4539001 L14.98131,10.4551666 Z M14.98131,12.6686297 L11.6229591,12.6686297 L11.6229591,12.6686297 C11.2970566,12.6679265 11.0328392,12.4042748 11.031437,12.0783741 C11.031437,11.7539823 11.2985673,11.4881185 11.6216926,11.4881185 L14.9800436,11.4881185 C15.3057019,11.4881185 15.572855,11.7539823 15.572855,12.0783741 L15.572855,12.0783735 C15.5756594,12.4015423 15.3159709,12.665814 14.9928021,12.6686418 C14.9889718,12.6686641 14.9851411,12.6686641 14.9813108,12.6686295 L14.98131,12.6686297 Z" id="形状"></path>
                </g>
            </g>
        </g>
    </g>
</svg>