<?xml version="1.0" encoding="UTF-8"?>
<svg width="20px" height="20px" viewBox="0 0 20 20" version="1.1" xmlns="http://www.w3.org/2000/svg" xmlns:xlink="http://www.w3.org/1999/xlink">
    <!-- Generator: Sketch 64 (93537) - https://sketch.com -->
    <title>icon_ch</title>
    <desc>Created with Sketch.</desc>
    <g id="页面-1" stroke="none" stroke-width="1" fill="none" fill-rule="evenodd" opacity="0.8">
        <g id="03-1-1完善物流信息" transform="translate(-341.000000, -225.000000)" fill="#FFFFFF" fill-rule="nonzero">
            <g id="icon_ch" transform="translate(341.000000, 225.000000)">
                <path d="M9.71334787,19.7655811 C4.36000831,19.7655811 0.00889213156,15.414465 0.00889213156,10.0611254 C0.00889213156,4.70778584 4.36000831,0.356669668 9.71334787,0.356669668 C15.0666874,0.356669668 19.4178036,4.70778584 19.4178036,10.0611254 C19.4178036,15.414465 15.0666874,19.7655811 9.71334787,19.7655811 Z M9.71334787,1.53000437 C5.02000907,1.53000437 1.19444907,5.35556437 1.19444907,10.0489032 C1.19444907,14.742242 5.02000907,18.567802 9.71334787,18.567802 C14.4066867,18.567802 18.2322467,14.742242 18.2322467,10.0489032 C18.2322467,5.35556437 14.4066867,1.53000437 9.71334787,1.53000437 Z M9.71334787,10.9044597 L5.04445355,6.21112092 L5.92445457,5.3311199 L10.5933489,10.0244587 L9.71334787,10.9044597 L9.71334787,10.9044597 Z M14.37002,6.21112092 L9.70112563,10.9044597 L8.82112461,10.0244587 L13.4900189,5.3311199 L14.37002,6.21112092 L14.37002,6.21112092 Z M8.82112461,10.0122365 L13.4900189,5.31889766 L14.37002,6.19889869 L9.70112563,10.8922375 L8.82112461,10.0122365 L8.82112461,10.0122365 Z M5.93667681,5.31889766 L10.6055711,10.0122365 L9.7255701,10.8922375 L5.04445355,6.21112092 L5.93667681,5.31889766 L5.93667681,5.31889766 Z M9.71334787,9.09556873 L14.3822422,13.7889075 L13.5022412,14.6689085 L8.82112461,9.98779199 L9.71334787,9.09556873 L9.71334787,9.09556873 Z M5.04445355,13.7889075 L9.71334787,9.09556873 L10.5933489,9.97556975 L5.92445457,14.6689085 L5.04445355,13.7889075 L5.04445355,13.7889075 Z M10.5933489,9.98779199 L5.92445457,14.6811308 L5.04445355,13.7889075 L9.71334787,9.09556873 L10.5933489,9.98779199 L10.5933489,9.98779199 Z M13.4900189,14.6811308 L8.82112461,9.98779199 L9.70112563,9.10779096 L14.37002,13.8011298 L13.4900189,14.6811308 Z" id="形状"></path>
            </g>
        </g>
    </g>
</svg>