<?xml version="1.0" encoding="UTF-8"?>
<svg width="20px" height="20px" viewBox="0 0 20 20" version="1.1" xmlns="http://www.w3.org/2000/svg" xmlns:xlink="http://www.w3.org/1999/xlink">
    <!-- Generator: Sketch 64 (93537) - https://sketch.com -->
    <title>03icon_yqs</title>
    <desc>Created with Sketch.</desc>
    <g id="页面-1" stroke="none" stroke-width="1" fill="none" fill-rule="evenodd">
        <g id="03订单中心-3-0" transform="translate(-241.000000, -366.000000)" fill="#67C23A" fill-rule="nonzero">
            <g id="编组-6" transform="translate(15.000000, 187.000000)">
                <g id="编组-3" transform="translate(226.000000, 179.000000)">
                    <g id="03icon_yqs">
                        <path d="M9.99001162,1.33250155 C5.21350216,1.33250155 1.33000155,5.21600216 1.33000155,9.99151553 C1.33000155,14.7645289 5.21250607,18.6495334 9.99001162,18.6495334 C14.763025,18.6495334 18.6480295,14.765525 18.6480295,9.99151553 C18.6480295,5.21750607 14.763025,1.33250155 9.99051944,1.33250155 M9.99051944,19.9805311 C4.48201693,19.9800311 0,15.4985337 0,9.99151553 C0,4.48301303 4.4819974,-1.11022432e-15 9.99001162,-1.11022432e-15 C15.497518,-1.11022432e-15 19.9800232,4.48301303 19.9800232,9.99151553 C19.9800232,15.4985141 15.497518,19.9805311 9.99001162,19.9805311 M14.4150168,6.03151092 L8.49100597,13.2385115 L6.20799551,10.9550127 C5.92249517,10.6695124 5.49399467,10.6695124 5.20849434,10.9550127 C4.92349401,11.2400131 4.92349401,11.6685136 5.20849434,11.9540139 L8.06349766,14.8085094 C8.20599783,14.9510096 8.348498,15.0225097 8.56249824,15.0225097 C8.77649849,15.0225097 8.91949866,14.9510096 9.06249883,14.7370093 L15.4850063,6.88750801 C15.6990065,6.60250768 15.6990065,6.1025071 15.4135062,5.88850685 C15.1285059,5.6745066 14.7000054,5.6745066 14.4145051,6.03150702" id="形状"></path>
                    </g>
                </g>
            </g>
        </g>
    </g>
</svg>