<?xml version="1.0" encoding="UTF-8"?>
<svg width="17px" height="18px" viewBox="0 0 17 18" version="1.1" xmlns="http://www.w3.org/2000/svg" xmlns:xlink="http://www.w3.org/1999/xlink">
    <!-- Generator: Sketch 64 (93537) - https://sketch.com -->
    <title>03icon_http</title>
    <desc>Created with Sketch.</desc>
    <defs>
        <linearGradient x1="92.5860824%" y1="100%" x2="7.4139176%" y2="0%" id="linearGradient-1">
            <stop stop-color="#0D80F7" offset="0%"></stop>
            <stop stop-color="#02A0FE" offset="100%"></stop>
        </linearGradient>
    </defs>
    <g id="页面-1" stroke="none" stroke-width="1" fill="none" fill-rule="evenodd">
        <g id="03订单中心-3-1结款详情" transform="translate(-15.000000, -286.000000)" fill="url(#linearGradient-1)" fill-rule="nonzero">
            <g id="编组备份" transform="translate(15.000000, 285.000000)">
                <g id="03icon_http" transform="translate(-0.000000, 1.000000)">
                    <path d="M3.70183966,7.99615774 C3.45814679,7.99615774 3.21307053,7.74692601 3.21307053,7.49769603 C3.21307053,7.24708089 3.45814855,6.996464 3.70183966,6.996464 L12.491387,6.996464 C12.736465,6.996464 12.9801561,7.24569574 12.9801561,7.49631087 C12.9801561,7.74554261 12.7364633,7.99615774 12.491387,7.99615774 L3.70322833,7.99615774 L3.70183966,7.99615774 Z M3.7503012,10.9952355 C3.45814715,10.9952355 3.21306913,10.7460037 3.21306913,10.4953886 C3.21306913,10.1949271 3.45814715,9.99692687 3.7503012,9.99692687 L6.53337865,9.99692687 C6.82691786,9.99692687 7.07199412,10.1949271 7.07199412,10.4953886 C7.07199412,10.7446203 6.8269161,10.9952355 6.53476205,10.9952355 L3.7516846,10.9952355 L3.7503012,10.9952355 Z M3.7503012,13.9943132 C3.45814715,13.9943132 3.21306913,13.7450814 3.21306913,13.4944663 C3.21306913,13.1940048 3.45814715,12.9946194 3.7503012,12.9946194 L6.53337865,12.9946194 C6.82691786,12.9946194 7.07199412,13.1940048 7.07199412,13.4930811 C7.07199412,13.7436963 6.8269161,13.9943132 6.53476205,13.9943132 L3.7516846,13.9943132 L3.7503012,13.9943132 Z M3.70322429,4.99845113 C3.45953142,4.99845113 3.21445516,4.74921939 3.21445516,4.49860426 C3.21445516,4.24937252 3.45953318,3.99875739 3.70322429,3.99875739 L12.4927716,3.99875739 C12.7378496,3.99875739 12.9815407,4.24798912 12.9815407,4.4972191 C12.9815407,4.74783424 12.7378479,4.99845113 12.4927716,4.99845113 L3.70322429,4.99845113 Z M15.4226266,-1.75781455e-05 C15.6663195,-1.75781455e-05 15.9100123,0.249214157 15.9100123,0.499829293 L15.9100123,8.49598703 C15.9100123,8.79644852 15.7161658,8.99583391 15.4226266,8.99583391 C15.1290874,8.99583391 14.9338575,8.79644852 14.9338575,8.49737219 L14.9338575,0.998289248 L1.25937867,0.998289248 L1.25937867,16.9906223 L8.09660928,16.9906223 C8.39014849,16.9906223 8.5853784,17.1913911 8.5853784,17.4904692 C8.5853784,17.7909307 8.39014673,17.9903161 8.09660928,17.9903161 L0.77198943,17.9903161 C0.526911411,17.9903161 0.283220307,17.7410843 0.283220307,17.4918543 L0.283220307,0.498445893 C0.283220307,0.250599315 0.526913168,-1.75781455e-05 0.77198943,-1.75781455e-05 L15.4212291,-1.75781455e-05 L15.4226266,-1.75781455e-05 Z M12.9801609,10.9952179 C11.3684664,10.9952179 10.0503059,12.3452194 10.0503059,13.9942956 C10.0503059,15.6419901 11.3684611,16.9919846 12.9801609,16.9919846 C14.5918553,16.9919846 15.9100158,15.6433682 15.9100158,13.9942956 C15.9100158,12.3452159 14.5918606,10.9938292 12.9801609,10.9938292 L12.9801609,10.9952179 Z M12.9801609,9.99552413 C15.1290891,9.99552413 16.8875541,11.7955262 16.8875541,13.9943061 C16.8875541,16.193086 15.1290891,17.9916995 12.9801609,17.9916995 C10.8312326,17.9916995 9.07415632,16.1916974 9.07415632,13.9943061 C9.07415632,11.7955262 10.8326213,9.99552413 12.9801609,9.99552413 Z M13.1753925,12.194304 L13.5658541,13.0444587 C13.6157003,13.0943049 13.6627774,13.1441511 13.7126236,13.1441511 L14.591856,13.2438434 C14.7386254,13.2438434 14.8355489,13.4930752 14.6887793,13.5941512 L14.0061636,14.1936908 C13.9577021,14.243537 13.9577021,14.2933832 13.9577021,14.3930762 L14.1515486,15.2930772 C14.2013948,15.4426159 14.0061638,15.5935387 13.8593946,15.493846 L13.0784714,15.0438455 L13.0784714,15.0438455 C13.0230726,14.9936527 12.9386392,14.9936527 12.8832397,15.0438455 L12.1009314,15.493846 C11.954162,15.5935384 11.8087773,15.4426152 11.8087773,15.2930772 L12.0026238,14.3930762 C12.0026238,14.34323 12.0026238,14.2435375 11.9541623,14.1936908 L11.2715467,13.5941512 C11.1247772,13.4944589 11.2217005,13.2936898 11.3684699,13.2438434 L12.2477024,13.1441511 C12.2961639,13.1441511 12.3944718,13.0943049 12.3944718,13.0444587 L12.7849334,12.194304 L12.7849334,12.194304 C12.847471,12.0864809 12.9855756,12.0497697 13.0933982,12.1123073 C13.1274054,12.1320315 13.1556707,12.1602968 13.175395,12.194304 L13.1753925,12.194304 Z" id="形状"></path>
                </g>
            </g>
        </g>
    </g>
</svg>