<?xml version="1.0" encoding="UTF-8"?>
<svg width="20px" height="20px" viewBox="0 0 20 20" version="1.1" xmlns="http://www.w3.org/2000/svg" xmlns:xlink="http://www.w3.org/1999/xlink">
    <!-- Generator: Sketch 64 (93537) - https://sketch.com -->
    <title>ico_wswlxx</title>
    <desc>Created with Sketch.</desc>
    <g id="页面-1" stroke="none" stroke-width="1" fill="none" fill-rule="evenodd">
        <g id="03订单中心-1-0" transform="translate(-220.000000, -366.000000)" fill="#F56C6C" fill-rule="nonzero">
            <g id="moban备份" transform="translate(15.000000, 187.000000)">
                <g id="编组-3" transform="translate(205.000000, 179.000000)">
                    <g id="ico_wswlxx">
                        <path d="M14.7651734,18.4502363 L14.7651735,18.4502397 C14.7676117,18.8051093 14.4866243,19.0971858 14.1319247,19.1084788 L1.80030876,19.07515 C1.45868922,19.07515 0.871270569,18.8168529 0.871270569,18.4627353 L0.908768854,10.0014168 L7.24121763,10.0014168 L7.24121763,10.0014168 C8.25350787,9.98787516 9.0631553,9.15627325 9.04961232,8.14398301 C9.04953514,8.13821402 9.04943073,8.13244544 9.04929909,8.12667744 L9.04929909,0.940184705 L14.1694222,0.940184705 L14.1694223,0.940184705 C14.4915027,0.935054308 14.7567589,1.19199359 14.7618898,1.51407404 C14.7621165,1.52831076 14.7618219,1.54255103 14.7610065,1.55676609 L14.7610065,6.87686993 L15.6650485,5.62704426 L15.6650485,1.56510594 L15.6650485,1.56510925 C15.6609952,0.720071158 14.9890497,0.0297129329 14.1444296,0.00282227659 L8.4493839,0.00282227659 C6.3246744,-0.0846655205 4.67490685,1.90672488 4.57492627,2.03587152 C4.47494021,2.1650203 2.17109535,4.92714441 1.02125026,6.10197 C-0.128590924,7.2768073 0.00472563767,9.1015438 0.00472563767,9.42650512 L0.00472563767,18.4502461 L0.00472563056,18.4502465 C-0.0114569078,19.2899076 0.656103342,19.9837053 1.49576447,20.000023 C1.49868212,20.000023 1.50159991,20.000023 1.50451782,20.000023 L14.1444349,20.000023 L14.1444349,20.000023 C14.9955882,19.9819757 15.6773956,19.2890823 15.6817218,18.4377474 L15.6817218,12.8135221 L14.7651817,13.7508923 L14.7651734,18.4502363 Z M1.62951361,6.75186333 C2.821015,5.53536582 5.13736926,2.74824539 5.23318968,2.62744446 C5.32900972,2.50662792 6.61633192,1.1359857 8.14944308,0.961008931 L8.14944308,8.12668133 L8.1494431,8.12668179 C8.17481032,8.61841283 7.79674738,9.03760473 7.30501634,9.06297194 C7.2851626,9.06399615 7.26527996,9.06435601 7.2454022,9.0640509 L0.908773737,9.0640509 C0.908773737,8.43080602 1.0545868,7.33929108 1.62534098,6.75188024 L1.62951361,6.75186333 Z M9.78254654,14.3841378 L9.73671953,14.4424631 L9.73671953,14.4799579 C9.73671953,14.4799579 9.58674045,15.0298823 9.46175828,15.5839709 C9.21595916,16.72548 9.29511472,16.8962888 9.41593127,16.9962752 L9.41593125,16.9962752 C9.47145318,17.040178 9.5410476,17.0623892 9.61173811,17.0587665 C10.028346,17.0587665 11.4656465,16.3630294 11.7447679,16.2255487 L11.7822627,16.2255487 L19.6228382,6.35192397 L17.5814491,4.585502 L9.78254654,14.3841378 Z M11.4489821,15.313176 L10.54494,14.6882632 L17.5023114,5.93948347 L18.4063534,6.56439631 L11.4489821,15.313176 Z M19.8894802,5.31457064 L19.8894803,5.31457074 C19.4843567,4.79255451 18.9695202,4.36589191 18.3813555,4.06474507 L18.3813555,4.06474507 C18.1842908,4.02172569 17.9782046,4.06083702 17.8106009,4.17306336 L17.8106009,4.17306335 C17.7309532,4.29251252 17.7583706,4.45336056 17.8730922,4.53967902 L19.6311821,6.0353038 L19.6311821,6.0353038 C19.7241326,6.13424103 19.8796883,6.13909435 19.9786259,6.04614389 C19.9823511,6.04264412 19.9859662,6.039029 19.989466,6.0353038 L19.989466,6.03530286 C19.9996199,5.79510141 19.965733,5.55506988 19.8894796,5.32706766 L19.8894802,5.31457064 Z" id="形状"></path>
                    </g>
                </g>
            </g>
        </g>
    </g>
</svg>