<?xml version="1.0" encoding="UTF-8"?>
<svg width="22px" height="22px" viewBox="0 0 22 22" version="1.1" xmlns="http://www.w3.org/2000/svg" xmlns:xlink="http://www.w3.org/1999/xlink">
    <!-- Generator: Sketch 64 (93537) - https://sketch.com -->
    <title>icon-bj</title>
    <desc>Created with Sketch.</desc>
    <defs>
        <linearGradient x1="100%" y1="50%" x2="0%" y2="50%" id="linearGradient-1">
            <stop stop-color="#0D80F7" offset="0%"></stop>
            <stop stop-color="#02A0FE" offset="100%"></stop>
        </linearGradient>
        <linearGradient x1="100%" y1="50%" x2="0%" y2="50%" id="linearGradient-2">
            <stop stop-color="#0D80F7" offset="0%"></stop>
            <stop stop-color="#02A0FE" offset="100%"></stop>
        </linearGradient>
    </defs>
    <g id="页面-1" stroke="none" stroke-width="1" fill="none" fill-rule="evenodd">
        <g id="01淘材模块首页备份" transform="translate(-15.000000, -333.000000)" fill-rule="nonzero">
            <g id="icon-bj" transform="translate(15.000000, 333.000000)">
                <path d="M15.813019,0.407000474 L1.75500262,0.407000474 C0.820001536,0.407000474 0.05000064,1.17700137 0.05000064,2.11200246 L0.05000064,18.2050212 C0.05000064,19.1400223 0.820001536,19.9100232 1.75500262,19.9100232 L9.97201219,19.9100232 C9.74101192,19.1730223 9.62001178,18.3920214 9.62001178,17.5780205 C9.62001178,13.2550154 13.1290159,9.74601134 17.4520209,9.74601134 L17.518021,9.74601134 L17.518021,2.11200246 C17.518021,1.17700137 16.7480201,0.407000474 15.813019,0.407000474 Z M7.21100897,12.2980143 L3.83400504,12.2980143 C3.47100462,12.2980143 3.17400428,12.001014 3.17400428,11.6380135 C3.17400428,11.2750131 3.47100462,10.9780128 3.83400504,10.9780128 L7.21100897,10.9780128 C7.5740094,10.9780128 7.87100974,11.2750131 7.87100974,11.6380135 C7.87100974,12.001014 7.5740094,12.2980143 7.21100897,12.2980143 Z M9.13601121,8.52500992 C9.02601108,8.72301015 8.81701084,8.8550103 8.57501056,8.8550103 L3.82300503,8.8550103 C3.59200476,8.8550103 3.38300452,8.72301015 3.26200438,8.52500992 C3.15200425,8.31600968 3.15200425,8.06300938 3.26200438,7.86500915 C3.37200451,7.66700892 3.58100475,7.53500877 3.82300503,7.53500877 L8.56401055,7.53500877 C8.79501082,7.53500877 9.00401106,7.66700892 9.1250112,7.86500915 C9.24601134,8.0740094 9.24601134,8.32700969 9.13601121,8.52500992 Z M12.4470151,5.20300605 L3.83400504,5.20300605 C3.47100462,5.20300605 3.17400428,4.90600571 3.17400428,4.54300529 C3.17400428,4.18000486 3.47100462,3.88300452 3.83400504,3.88300452 L12.4580151,3.88300452 C12.8210155,3.88300452 13.1180158,4.18000486 13.1180158,4.54300529 C13.1180158,4.90600571 12.8210155,5.20300605 12.4470151,5.20300605 L12.4470151,5.20300605 Z" id="形状" fill="url(#linearGradient-1)"></path>
                <path d="M19.8830237,13.1670153 C18.9590226,12.2100142 17.6940212,11.6710136 16.3740196,11.6490136 C15.0430181,11.6710136 13.7780166,12.2100142 12.8650156,13.1670153 C11.9410145,14.1240164 11.4350139,15.4000179 11.4680139,16.7310195 C11.4460139,18.062021 11.9410145,19.3380225 12.8650156,20.2950236 C13.7890166,21.2520247 15.0540181,21.7910254 16.3740196,21.8130254 C17.7050212,21.7910254 18.9700227,21.2520247 19.8830237,20.2950236 C20.8070248,19.3380225 21.3130254,18.062021 21.2800253,16.7310195 C21.3130254,15.4110179 20.8070248,14.1240164 19.8830237,13.1670153 Z" id="路径" fill="url(#linearGradient-2)"></path>
                <path d="M18.6950223,16.8850196 C18.6070222,17.1270199 18.376022,17.2920201 18.1120217,17.2920201 C17.9470215,17.2920201 17.7820213,17.22602 17.6610211,17.1050199 L17.0780205,16.4560191 L17.0780205,18.6120217 C17.0780205,18.7880219 17.0120204,18.9530221 16.8910202,19.0740222 C16.7700201,19.1950223 16.6050199,19.2610224 16.4400197,19.2610224 C16.2640195,19.2610224 16.0990193,19.1950223 15.9890192,19.0740222 C15.868019,18.9530221 15.802019,18.7880219 15.802019,18.6120217 L15.802019,16.346019 L15.0870181,17.0830199 C14.966018,17.20402 14.8120178,17.2700201 14.6360176,17.2700201 C14.3720173,17.2700201 14.152017,17.1050199 14.0530169,16.8630196 C13.9540168,16.6210193 14.0090169,16.346019 14.1850171,16.1480188 L15.8900191,14.3770167 C16.1650194,14.1240164 16.5830199,14.1240164 16.8470202,14.3770167 L18.5630222,16.1590188 C18.7390224,16.368019 18.7940225,16.6430194 18.6950223,16.8850196 L18.6950223,16.8850196 Z" id="路径" fill="#FFFFFF"></path>
            </g>
        </g>
    </g>
</svg>