<?xml version="1.0" encoding="UTF-8"?>
<svg width="22px" height="24px" viewBox="0 0 22 24" version="1.1" xmlns="http://www.w3.org/2000/svg" xmlns:xlink="http://www.w3.org/1999/xlink">
    <!-- Generator: Sketch 64 (93537) - https://sketch.com -->
    <title>mm_icon</title>
    <desc>Created with Sketch.</desc>
    <defs>
        <linearGradient x1="89.3680724%" y1="100%" x2="10.6319276%" y2="0%" id="linearGradient-1">
            <stop stop-color="#0D80F7" offset="0%"></stop>
            <stop stop-color="#02A0FE" offset="100%"></stop>
        </linearGradient>
    </defs>
    <g id="页面-1" stroke="none" stroke-width="1" fill="none" fill-rule="evenodd">
        <g id="00-3账户密码登录" transform="translate(-56.000000, -328.000000)" fill="url(#linearGradient-1)" fill-rule="nonzero">
            <g id="mm_icon" transform="translate(56.000000, 328.000000)">
                <path d="M19.7891152,9.29068269 L5.26110611,9.29068269 L5.26110611,7.04668007 C5.26110611,3.98934839 7.89178105,1.49732987 11.1251051,1.49732987 C14.3597651,1.49732987 16.9904401,3.99066089 16.9904401,7.05333633 C16.9904401,7.46933604 17.3424413,7.80267158 17.7811074,7.80267158 C18.2197735,7.80267158 18.5717747,7.46933838 18.5717747,7.05333633 C18.5757747,3.16265993 15.231763,0 11.1264223,0 C9.13842078,0 7.26907407,0.732000852 5.85975212,2.0640024 C4.45041611,3.39600395 3.67975037,5.16267788 3.67975037,7.04668007 L3.67975037,9.29068269 L2.00908124,9.29068269 C1.0370801,9.29068269 0.261079982,10.0266843 0.261079982,10.9413502 L0.261079982,22.3200353 C0.261079982,23.2400356 1.04241449,24.0000373 2.00908124,24.0000373 L19.7864457,24.0000373 C20.7597804,24.0000373 21.55712,23.2413692 21.55712,22.3200353 L21.55712,10.9413502 C21.55978,10.026682 20.7611116,9.29068269 19.7891105,9.29068269 L19.7891152,9.29068269 Z M19.8024486,22.7880475 L2.0197638,22.7880475 L2.01976381,22.7880475 C1.92404565,22.789502 1.84525477,22.7131033 1.84376353,22.6173851 C1.84376353,22.6169322 1.84376353,22.6164792 1.84376353,22.6160262 L1.84376353,10.9600049 C1.84376353,10.8666715 1.92243018,10.7879836 2.01976366,10.7879836 L19.7957922,10.7879836 L19.7957922,10.7879836 C19.8915103,10.7865291 19.9703012,10.8629278 19.9717768,10.958646 C19.9717838,10.9590989 19.971789,10.9595519 19.9717924,10.9600049 L19.9717924,22.6160262 L19.9771258,22.6160262 C19.9771258,22.7120264 19.8957924,22.7880475 19.7997923,22.7880475 L19.8024486,22.7880475 Z M10.766438,13.1746794 C9.87043778,13.1746794 9.14776975,13.8573466 9.14776975,14.708014 C9.14776975,15.2666803 9.4637709,15.756016 9.93977067,16.0253483 L9.93977067,18.9986799 C9.93977067,19.4120148 10.2944367,19.7466816 10.730438,19.7466816 C11.1664393,19.7466816 11.5211053,19.4106812 11.5211053,18.9986799 L11.5211053,16.0613484 C12.0357723,15.8066809 12.3864399,15.2946811 12.3864399,14.7053468 C12.3864399,13.8573466 11.6637719,13.1733458 10.766438,13.1733458 L10.766438,13.1746794 Z" id="形状"></path>
            </g>
        </g>
    </g>
</svg>